
<svg width="68px" height="33px" viewBox="0 0 68 33" version="1.1" xmlns="http://www.w3.org/2000/svg" xmlns:xlink="http://www.w3.org/1999/xlink">
    <g id="initial" stroke="none" stroke-width="1" fill="none" fill-rule="evenodd">
        <g id="verify-login" transform="translate(-254.000000, -78.000000)">
            <g id="logo-basic" transform="translate(254.000000, 78.000000)">
                <rect id="Rectangle_2_copy" fill="#FFB400" fill-rule="nonzero" x="0" y="31" width="6" height="2"></rect>
                <polygon id="Rectangle_2_copy_2" fill="#FFB400" points="9 31 21 31 21 33 9 33"></polygon>
                <polygon id="Rectangle_2_copy_3" fill="#FFB400" points="25 31 37 31 37 33 25 33"></polygon>
                <polygon id="Rectangle_2_copy_4" fill="#FFB400" points="40 31 52 31 52 33 40 33"></polygon>
                <polygon id="Rectangle_2_copy_5" fill="#FFB400" points="56 31 68 31 68 33 56 33"></polygon>
                <rect id="Rectangle" fill="#FFB400" fill-rule="nonzero" x="0" y="26" width="68" height="2"></rect>
                <path d="M21.4046638,22.7448226 L18.7192465,18.6833286 C19.3869624,18.495651 19.9095311,18.1828549 20.2869528,17.7449404 C20.6643744,17.3070258 20.8530657,16.7663876 20.8530265,16.1230255 C20.8530265,15.5780311 20.7417406,15.1222891 20.5191686,14.7557996 C20.3003342,14.3933404 19.9936968,14.089464 19.6264551,13.871124 C19.2370481,13.6414214 18.8096476,13.4803847 18.3636165,13.3953093 C17.8882123,13.3008875 17.4043147,13.2537295 16.9192657,13.2545405 L13,13.2545405 L13,22.7448226 L15.4241525,22.7448226 L15.4241525,18.978374 L16.2701529,18.978374 L18.5014671,22.7448226 L21.4046638,22.7448226 Z M18.2320451,16.7533 C18.1217916,16.9040416 17.9735282,17.0241162 17.801768,17.1017702 C17.6166638,17.1851527 17.4201538,17.2416086 17.2184409,17.269356 C17.0107988,17.3002017 16.8011091,17.3158846 16.5911002,17.3162754 L15.4096574,17.3162754 L15.4096574,15.1045576 L16.736932,15.1045576 C16.9296774,15.1051644 17.1221577,15.1186284 17.3130408,15.1448565 C17.5001251,15.1682037 17.6823113,15.2202281 17.8529412,15.2990285 C18.0096689,15.3720754 18.1450842,15.4827213 18.2466576,15.6207287 C18.3552664,15.7811129 18.408977,15.9712651 18.4000011,16.1636122 C18.4093779,16.3726965 18.3505423,16.5792663 18.2320451,16.7533 Z M29.7946565,22.7448226 L29.7946565,20.7879665 L25.0190032,20.7879665 L25.0190032,18.8175239 L29.286622,18.8175239 L29.286622,16.9810463 L25.0190032,16.9810463 L25.0190032,15.1848675 L29.5333917,15.1848675 L29.5333917,13.2547814 L22.6238997,13.2547814 L22.6238997,22.7448226 L29.7946565,22.7448226 Z M38.4459726,14.179468 C37.9798243,13.7891674 37.4396523,13.4930757 36.8564943,13.3082062 C36.2837423,13.1169673 35.6833486,13.0174033 35.0783442,13.0133335 C34.5942601,13.0133335 34.1118809,13.0696009 33.6412704,13.1808617 C33.1876222,13.28412 32.7555029,13.4632886 32.3638779,13.7105042 C31.9914427,13.9467266 31.6787127,14.2630238 31.4493923,14.6354211 C31.2171178,15.010738 31.1009806,15.4620087 31.1009806,15.9892332 C31.1009806,16.4182052 31.1759798,16.7823536 31.3259782,17.0816783 C31.4697505,17.3731432 31.6722152,17.6330189 31.9211596,17.84563 C32.1732098,18.0589088 32.4571492,18.2329556 32.763052,18.361686 C33.0777626,18.4958577 33.4000611,18.6122056 33.7283586,18.7101561 C34.06697,18.8086006 34.3693729,18.9002133 34.6355673,18.9849945 C34.8676211,19.0555371 35.0914491,19.1498779 35.3033418,19.2664534 C35.462629,19.3528358 35.6031565,19.4689459 35.7170111,19.6082455 C35.8158616,19.7400393 35.8669651,19.9004674 35.8621974,20.0640259 C35.8669962,20.2320543 35.8269618,20.3983973 35.7460601,20.5465762 C35.671247,20.6778372 35.5639115,20.7884794 35.4339742,20.8682764 C35.29334,20.9526045 35.1384854,21.0116188 34.9767021,21.0425403 C34.8000414,21.0785526 34.6200528,21.0965144 34.4396187,21.0961378 C34.0138928,21.0917631 33.5946543,20.9932543 33.2131059,20.8079432 C32.8342496,20.6396186 32.4955122,20.395349 32.2186916,20.0908534 L30.5931221,21.618987 C31.0478904,22.0569015 31.6188545,22.3942415 32.3060147,22.6310071 C32.99153,22.8675032 33.7131263,22.9876258 34.4397947,22.9862252 C34.9347914,22.9872123 35.427757,22.9241081 35.9059176,22.7985353 C36.3590079,22.6831126 36.7869186,22.4878042 37.1687562,22.2221461 C37.5350699,21.9646301 37.8356536,21.6274328 38.0469745,21.2369536 C38.2646952,20.8394147 38.3735556,20.3680329 38.3735556,19.8228083 C38.3735556,19.3492388 38.2719526,18.9538109 38.0687466,18.6365243 C37.8690259,18.3230351 37.60745,18.0518665 37.2993886,17.8389519 C36.9820226,17.6206878 36.6351288,17.4469903 36.2687658,17.3228959 C35.8913442,17.1934789 35.5284568,17.075077 35.1801037,16.9676901 C34.9380875,16.8962651 34.7203473,16.8270086 34.526883,16.7599205 C34.3531828,16.7018431 34.1854605,16.627806 34.0259494,16.5387948 C33.8989019,16.4702416 33.7896306,16.3739392 33.7065866,16.2573359 C33.6302807,16.1369232 33.5923739,15.9968972 33.5977262,15.8552106 C33.5906127,15.6903757 33.6390833,15.5278366 33.7356356,15.3927522 C33.8272274,15.2722986 33.9433852,15.171876 34.0767117,15.0978795 C34.2184129,15.0198614 34.3733306,14.9676299 34.5339838,14.9437075 C34.6995546,14.9171507 34.8670311,14.9036745 35.0348001,14.9034086 C35.3782841,14.9086772 35.7168929,14.9840014 36.029097,15.1245919 C36.3510674,15.2567148 36.6369513,15.4610942 36.8637712,15.7213032 L38.4459726,14.179468 Z M49.0565402,21.4313669 L47.3294459,19.9300609 C47.0934386,20.2267154 46.7902452,20.4653712 46.443892,20.6271164 C46.0761338,20.8059667 45.6455828,20.8953342 45.1522391,20.8952191 C44.7497204,20.8995888 44.3502133,20.8267204 43.9761953,20.6807139 C43.6306211,20.5459919 43.3170009,20.3429549 43.0548436,20.0842329 C42.7925327,19.8214498 42.5874747,19.5090513 42.4521505,19.1660516 C42.3036046,18.7900556 42.2297045,18.3896665 42.2344299,17.9864458 C42.230114,17.5898038 42.3040454,17.1960873 42.4521505,16.8269894 C42.7311001,16.1306636 43.2902592,15.5779008 43.9979087,15.2989134 C44.3783275,15.1482251 44.7854334,15.0730471 45.1956659,15.0777301 C45.5930075,15.0778841 45.9868454,15.1506258 46.3570384,15.2922353 C46.718115,15.4235506 47.0347329,15.651 47.2713479,15.9490495 L48.9550154,14.3941459 C48.5195741,13.9383847 47.9511138,13.5921022 47.2496346,13.3552983 C45.8457629,12.8838652 44.3223092,12.881517 42.9169343,13.3486202 C42.2661791,13.5657554 41.6646542,13.9049141 41.1458264,14.3472265 C40.6407327,14.7827757 40.2372167,15.3199605 39.9627405,15.9222219 C39.6769454,16.5387948 39.5341457,17.2268694 39.5343413,17.9864458 C39.5256832,18.6872472 39.669324,19.3818162 39.9556983,20.0238997 C40.2259951,20.6266977 40.6213193,21.1676559 41.116484,21.6123089 C41.6252522,22.0635838 42.2197174,22.4120385 42.8658785,22.6377427 C43.5713879,22.8845466 44.3158119,23.0070786 45.0647987,22.9996843 C45.9356814,22.9996843 46.7050394,22.858926 47.3728727,22.5774095 C48.0104306,22.31656 48.5842959,21.9259401 49.0565402,21.4313669 L49.0565402,21.4313669 L49.0565402,21.4313669 Z M58.8258021,19.1660516 L58.8258021,13.2547814 L56.3434342,13.2547814 L56.3434342,18.978374 C56.3450249,19.2275764 56.310848,19.4757578 56.2419095,19.7156132 C56.176466,19.944084 56.0626895,20.1564658 55.9079929,20.3389218 C55.7446957,20.5282375 55.5384933,20.6774274 55.3058866,20.7745527 C54.7307005,20.9890216 54.0952937,20.9890216 53.5201076,20.7745527 C53.2888428,20.6785457 53.0846827,20.5290855 52.9250435,20.3389218 C52.7742646,20.1539257 52.660925,19.9423592 52.5911269,19.7156132 C52.5178277,19.4765174 52.4812373,19.2280452 52.4825599,18.978374 L52.4825599,13.2547814 L50.0148633,13.2547814 L50.0148633,19.1660516 C50.0076349,19.7014337 50.1112513,20.2326848 50.3194375,20.7276333 C50.5161681,21.1876209 50.813697,21.5994903 51.1909071,21.9340091 C51.5924662,22.2830149 52.0611755,22.5496386 52.5694135,22.7181678 C53.7562646,23.0935251 55.033345,23.0935251 56.2201961,22.7181678 C56.7346842,22.5486629 57.2105113,22.2822993 57.6210028,21.9340091 C58.0061268,21.6018652 58.3110358,21.1897698 58.5135989,20.7276333 C58.726839,20.2339503 58.8331551,19.7021773 58.8258021,19.1660516 L58.8258021,19.1660516 L58.8258021,19.1660516 Z M68,22.7448226 L68,20.7879665 L63.2242294,20.7879665 L63.2242294,18.8175239 L67.4917895,18.8175239 L67.4917895,16.9810463 L63.2242294,16.9810463 L63.2242294,15.1848675 L67.7382657,15.1848675 L67.7382657,13.2547814 L60.828715,13.2547814 L60.828715,22.7448226 L68,22.7448226 Z" id="RESCUE" fill="#FFB400"></path>
                <path d="M34.4262996,9.74512784 L31.7339693,5.68346855 C32.403404,5.49578326 32.927318,5.18297445 33.3057112,4.74504211 C33.6841044,4.30710978 33.8732814,3.76644949 33.8732422,3.12306126 C33.8732422,2.57804468 33.7616698,2.12228416 33.5385248,1.7557797 C33.3191271,1.3933058 33.0117004,1.08941703 32.6435133,0.871068107 C32.2531038,0.641356192 31.8246031,0.480312914 31.3774238,0.39523409 C30.9007958,0.300808373 30.4156526,0.25364854 29.9293549,0.254459574 L26,0.254459574 L26,9.74512784 L28.4303929,9.74512784 L28.4303929,5.97852594 L29.2785711,5.97852594 L31.5156293,9.74512784 L34.4262996,9.74512784 Z M31.2455137,3.75336142 C31.1349764,3.90410912 30.9863314,4.02418859 30.814129,4.10184579 C30.6285483,4.18523167 30.4315324,4.24168991 30.2293002,4.26943839 C30.0211236,4.30028535 29.8108941,4.31596888 29.6003446,4.31635971 L28.4158605,4.31635971 L28.4158605,2.10455193 L29.7465518,2.10455193 C29.9397934,2.10515872 30.1327692,2.11862328 30.3241437,2.14485245 C30.5117095,2.16820059 30.6943647,2.22022713 30.8654339,2.29903074 C31.0225651,2.37208056 31.1583289,2.482731 31.2601639,2.62074404 C31.3690522,2.78113473 31.422901,2.97129466 31.413902,3.16364964 C31.423303,3.37274239 31.364316,3.57932059 31.2455137,3.75336142 Z M45.9665474,2.90215683 C45.6962398,2.3047325 45.2965534,1.77188339 44.7951249,1.34045404 C44.2729147,0.898886933 43.6672292,0.56188304 43.0123974,0.348543057 C41.5585133,-0.116181019 39.9912238,-0.116181019 38.5373397,0.348543057 C37.8852661,0.563075244 37.282216,0.900002807 36.7619667,1.34045404 C36.2604331,1.77181556 35.860695,2.30468001 35.5904265,2.90215683 C35.3089556,3.51437933 35.168279,4.20025582 35.1683966,4.95978632 C35.1593412,5.66709864 35.3031606,6.36829767 35.5904265,7.01741582 C35.8611687,7.62427255 36.2604839,8.16797441 36.7619667,8.61256804 C37.2791894,9.06516742 37.8824664,9.41362702 38.5373397,9.6380436 C39.9882583,10.1206521 41.5614788,10.1206521 43.0123974,9.6380436 C43.6700532,9.41485082 44.2759726,9.06630874 44.7951249,8.61256804 C45.2965008,8.16790679 45.6957647,7.62422024 45.9665474,7.01741582 C46.2541079,6.36837476 46.3980745,5.66714215 46.3889891,4.95978632 C46.3889891,4.20029421 46.2481752,3.51441771 45.9665474,2.90215683 Z M43.5072073,6.14611854 C43.3709423,6.49442577 43.1628548,6.81155263 42.8959024,7.07775146 C42.6299569,7.33960879 42.3133284,7.54695654 41.9645302,7.68767107 C41.1976041,7.98251983 40.3450727,7.98251983 39.5781466,7.68767107 C39.230773,7.54814787 38.9162258,7.34058968 38.6538347,7.07775146 C38.3909871,6.80977731 38.1856516,6.49300304 38.0499432,6.14611854 C37.9013051,5.76770101 37.8272207,5.3651699 37.8316032,4.95978632 C37.8284031,4.56603979 37.8999647,4.17513619 38.0426475,3.80696111 C38.1747374,3.46220263 38.3807297,3.14911291 38.6467744,2.88874251 C38.9141646,2.63028107 39.230536,2.42537021 39.5781466,2.28550127 C39.9567273,2.13432968 40.3624836,2.05911111 40.7713384,2.06430898 C41.1826269,2.05962582 41.5907808,2.13480691 41.9721789,2.28550127 C42.6791663,2.55971077 43.236075,3.11169682 43.5072073,3.80696111 C43.6547426,4.17401209 43.7288457,4.56537877 43.7254884,4.95978632 C43.7300632,5.36518045 43.6559931,5.76774311 43.5072073,6.14611854 Z M57.5219161,9.74530056 L53.2433702,0.254700414 L50.8275686,0.254700414 L46.5054842,9.74512784 L49.2125234,9.74512784 L49.969153,7.88186201 L53.9564612,7.88186201 L54.7572177,9.74512784 L57.5219161,9.74512784 L57.5219161,9.74530056 Z M53.2727882,6.04553995 L50.682244,6.04553995 L51.9919309,2.7882215 L53.2727882,6.04553995 Z M67.4910692,2.72132263 C67.172635,2.13689063 66.7128992,1.63757619 66.1519644,1.26693437 C65.5758179,0.895476319 64.9342394,0.631843995 64.2598022,0.489422167 C63.5531213,0.333299123 62.8308767,0.254631767 62.1064086,0.254872577 L58.3803317,0.254872577 L58.3803317,9.74512788 L62.2223153,9.74512788 C62.9302776,9.74512788 63.6350808,9.65278237 64.3180497,9.47033586 C64.9848649,9.29743745 65.6137629,9.00671731 66.1737336,8.61251047 C66.7243767,8.2207911 67.1771743,7.71209463 67.4981295,7.1246152 C67.8329057,6.52137397 68.0001958,5.80421659 67.9999998,4.97314307 C67.9999998,4.07966131 67.8303562,3.3290545 67.4910692,2.72132263 Z M65.1258665,6.30041196 C64.9499309,6.64311351 64.6899794,6.93783242 64.3692369,7.15823735 C64.0388788,7.37903419 63.6684269,7.53599164 63.2778312,7.62065705 C62.8554335,7.71558581 62.4233062,7.7628155 61.9899136,7.76145102 L60.8108423,7.76145102 L60.8108423,2.21179832 L62.0481611,2.21179832 C62.4667603,2.21100587 62.8841412,2.25596061 63.2925401,2.34583691 C63.6771399,2.42783157 64.0424454,2.58019127 64.3692369,2.79489987 C64.689463,3.01024898 64.9495642,3.30054606 65.1258665,3.63936852 C65.315318,3.99247785 65.4098477,4.43708856 65.4094567,4.97320064 C65.4094567,5.50056175 65.3149258,5.94290795 65.1258665,6.30023925 L65.1258665,6.30041196 Z" id="ROAD" fill="#FFFFFF"></path>
            </g>
        </g>
    </g>
</svg>
